<mxfile host="app.diagrams.net" modified="2023-12-18T14:00:42.754Z" agent="Mozilla/5.0 (Windows NT 10.0; Win64; x64) AppleWebKit/537.36 (KHTML, like Gecko) Chrome/121.0.0.0 Safari/537.36 Edg/121.0.0.0" etag="lKFPS4iPQ2GqfYZkknV6" version="22.1.11" type="github">
  <diagram name="第 1 页" id="rNSyJ-lCZb1aZMDvHygJ">
    <mxGraphModel dx="3393" dy="1208" grid="0" gridSize="10" guides="1" tooltips="1" connect="1" arrows="1" fold="1" page="0" pageScale="1" pageWidth="827" pageHeight="1169" math="0" shadow="0">
      <root>
        <mxCell id="0" />
        <mxCell id="1" parent="0" />
        <mxCell id="qQucJu1-gVCWv_oJNmjI-83" value="" style="group" vertex="1" connectable="0" parent="1">
          <mxGeometry x="-1618" y="-99" width="880" height="509" as="geometry" />
        </mxCell>
        <mxCell id="qQucJu1-gVCWv_oJNmjI-82" value="" style="group;verticalAlign=middle;" vertex="1" connectable="0" parent="qQucJu1-gVCWv_oJNmjI-83">
          <mxGeometry y="49" width="880" height="460" as="geometry" />
        </mxCell>
        <mxCell id="qQucJu1-gVCWv_oJNmjI-19" value="com::jxnu::onlinemall" style="shape=folder;fontStyle=1;tabWidth=250;tabHeight=30;tabPosition=left;html=1;boundedLbl=1;labelInHeader=1;container=1;collapsible=0;recursiveResize=0;whiteSpace=wrap;strokeWidth=2;verticalAlign=middle;" vertex="1" parent="qQucJu1-gVCWv_oJNmjI-82">
          <mxGeometry width="880" height="460" as="geometry" />
        </mxCell>
        <mxCell id="qQucJu1-gVCWv_oJNmjI-37" value="common" style="shape=folder;fontStyle=1;tabWidth=110;tabHeight=30;tabPosition=left;html=1;boundedLbl=1;labelInHeader=1;container=1;collapsible=0;recursiveResize=0;whiteSpace=wrap;strokeWidth=2;verticalAlign=middle;" vertex="1" parent="qQucJu1-gVCWv_oJNmjI-19">
          <mxGeometry x="31" y="62" width="200" height="157" as="geometry" />
        </mxCell>
        <mxCell id="qQucJu1-gVCWv_oJNmjI-41" value="config" style="shape=folder;fontStyle=1;spacingTop=10;tabWidth=40;tabHeight=14;tabPosition=left;html=1;whiteSpace=wrap;strokeWidth=2;verticalAlign=middle;" vertex="1" parent="qQucJu1-gVCWv_oJNmjI-37">
          <mxGeometry x="20" y="47" width="70" height="50" as="geometry" />
        </mxCell>
        <mxCell id="qQucJu1-gVCWv_oJNmjI-46" value="enums" style="shape=folder;fontStyle=1;spacingTop=10;tabWidth=40;tabHeight=14;tabPosition=left;html=1;whiteSpace=wrap;strokeWidth=2;verticalAlign=middle;" vertex="1" parent="qQucJu1-gVCWv_oJNmjI-37">
          <mxGeometry x="110" y="47" width="70" height="50" as="geometry" />
        </mxCell>
        <mxCell id="qQucJu1-gVCWv_oJNmjI-80" value="&lt;i&gt;«interface»&lt;br&gt;&lt;b&gt;Constants&lt;/b&gt;&lt;/i&gt;" style="html=1;whiteSpace=wrap;strokeWidth=2;dashed=1;verticalAlign=middle;" vertex="1" parent="qQucJu1-gVCWv_oJNmjI-37">
          <mxGeometry x="45" y="112" width="110" height="33" as="geometry" />
        </mxCell>
        <mxCell id="qQucJu1-gVCWv_oJNmjI-52" value="util" style="shape=folder;fontStyle=1;tabWidth=110;tabHeight=30;tabPosition=left;html=1;boundedLbl=1;labelInHeader=1;container=1;collapsible=0;recursiveResize=0;whiteSpace=wrap;strokeWidth=2;verticalAlign=middle;" vertex="1" parent="qQucJu1-gVCWv_oJNmjI-19">
          <mxGeometry x="334" y="62" width="160" height="156" as="geometry" />
        </mxCell>
        <mxCell id="qQucJu1-gVCWv_oJNmjI-30" value="generate" style="shape=folder;fontStyle=1;spacingTop=10;tabWidth=40;tabHeight=14;tabPosition=left;html=1;whiteSpace=wrap;strokeWidth=2;verticalAlign=middle;" vertex="1" parent="qQucJu1-gVCWv_oJNmjI-52">
          <mxGeometry x="23" y="54" width="114" height="84" as="geometry" />
        </mxCell>
        <mxCell id="qQucJu1-gVCWv_oJNmjI-25" value="exception" style="shape=folder;fontStyle=1;spacingTop=10;tabWidth=40;tabHeight=14;tabPosition=left;html=1;whiteSpace=wrap;strokeWidth=2;verticalAlign=middle;" vertex="1" parent="qQucJu1-gVCWv_oJNmjI-19">
          <mxGeometry x="712" y="79" width="130" height="90" as="geometry" />
        </mxCell>
        <mxCell id="qQucJu1-gVCWv_oJNmjI-26" value="mapper" style="shape=folder;fontStyle=1;spacingTop=10;tabWidth=40;tabHeight=14;tabPosition=left;html=1;whiteSpace=wrap;strokeWidth=2;verticalAlign=middle;" vertex="1" parent="qQucJu1-gVCWv_oJNmjI-19">
          <mxGeometry x="562" y="259" width="130" height="90" as="geometry" />
        </mxCell>
        <mxCell id="qQucJu1-gVCWv_oJNmjI-64" style="rounded=0;orthogonalLoop=1;jettySize=auto;html=1;entryX=0;entryY=0;entryDx=20;entryDy=0;entryPerimeter=0;exitX=0.75;exitY=1;exitDx=0;exitDy=0;exitPerimeter=0;strokeWidth=2;endArrow=none;endFill=0;startArrow=open;startFill=0;dashed=1;edgeStyle=orthogonalEdgeStyle;verticalAlign=middle;" edge="1" parent="qQucJu1-gVCWv_oJNmjI-19" source="qQucJu1-gVCWv_oJNmjI-52" target="qQucJu1-gVCWv_oJNmjI-26">
          <mxGeometry relative="1" as="geometry" />
        </mxCell>
        <mxCell id="qQucJu1-gVCWv_oJNmjI-24" value="entity" style="shape=folder;fontStyle=1;spacingTop=10;tabWidth=40;tabHeight=14;tabPosition=left;html=1;whiteSpace=wrap;strokeWidth=2;verticalAlign=middle;" vertex="1" parent="qQucJu1-gVCWv_oJNmjI-19">
          <mxGeometry x="712" y="259" width="130" height="90" as="geometry" />
        </mxCell>
        <mxCell id="qQucJu1-gVCWv_oJNmjI-67" style="rounded=0;orthogonalLoop=1;jettySize=auto;html=1;exitX=0;exitY=0;exitDx=160;exitDy=124.5;exitPerimeter=0;entryX=0;entryY=0;entryDx=20;entryDy=0;entryPerimeter=0;strokeWidth=2;endArrow=none;endFill=0;startArrow=open;startFill=0;dashed=1;edgeStyle=orthogonalEdgeStyle;verticalAlign=middle;" edge="1" parent="qQucJu1-gVCWv_oJNmjI-19" source="qQucJu1-gVCWv_oJNmjI-52" target="qQucJu1-gVCWv_oJNmjI-24">
          <mxGeometry relative="1" as="geometry" />
        </mxCell>
        <mxCell id="qQucJu1-gVCWv_oJNmjI-27" value="service" style="shape=folder;fontStyle=1;spacingTop=10;tabWidth=40;tabHeight=14;tabPosition=left;html=1;whiteSpace=wrap;strokeWidth=2;verticalAlign=middle;" vertex="1" parent="qQucJu1-gVCWv_oJNmjI-19">
          <mxGeometry x="354" y="329" width="130" height="90" as="geometry" />
        </mxCell>
        <mxCell id="qQucJu1-gVCWv_oJNmjI-65" style="rounded=0;orthogonalLoop=1;jettySize=auto;html=1;entryX=0;entryY=0;entryDx=20;entryDy=0;entryPerimeter=0;strokeWidth=2;endArrow=none;endFill=0;startArrow=open;startFill=0;exitX=0.25;exitY=1;exitDx=0;exitDy=0;exitPerimeter=0;dashed=1;verticalAlign=middle;" edge="1" parent="qQucJu1-gVCWv_oJNmjI-19" source="qQucJu1-gVCWv_oJNmjI-52" target="qQucJu1-gVCWv_oJNmjI-27">
          <mxGeometry relative="1" as="geometry">
            <mxPoint x="402" y="209" as="sourcePoint" />
            <mxPoint x="506" y="289" as="targetPoint" />
          </mxGeometry>
        </mxCell>
        <mxCell id="qQucJu1-gVCWv_oJNmjI-57" value="" style="edgeStyle=orthogonalEdgeStyle;rounded=0;orthogonalLoop=1;jettySize=auto;html=1;strokeWidth=2;dashed=1;endArrow=open;endFill=0;exitX=0;exitY=0;exitDx=130;exitDy=71;exitPerimeter=0;verticalAlign=middle;" edge="1" parent="qQucJu1-gVCWv_oJNmjI-19">
          <mxGeometry relative="1" as="geometry">
            <mxPoint x="484.0000000000002" y="405" as="sourcePoint" />
            <mxPoint x="777" y="350" as="targetPoint" />
            <Array as="points">
              <mxPoint x="484" y="384" />
              <mxPoint x="777" y="384" />
            </Array>
          </mxGeometry>
        </mxCell>
        <mxCell id="qQucJu1-gVCWv_oJNmjI-56" value="" style="edgeStyle=orthogonalEdgeStyle;rounded=0;orthogonalLoop=1;jettySize=auto;html=1;endArrow=open;endFill=0;dashed=1;strokeWidth=2;exitX=0;exitY=0;exitDx=130;exitDy=33;exitPerimeter=0;verticalAlign=middle;" edge="1" parent="qQucJu1-gVCWv_oJNmjI-19" target="qQucJu1-gVCWv_oJNmjI-26">
          <mxGeometry relative="1" as="geometry">
            <mxPoint x="484.0000000000002" y="366" as="sourcePoint" />
            <mxPoint x="627" y="353" as="targetPoint" />
            <Array as="points">
              <mxPoint x="627" y="366" />
            </Array>
          </mxGeometry>
        </mxCell>
        <mxCell id="qQucJu1-gVCWv_oJNmjI-69" style="edgeStyle=orthogonalEdgeStyle;rounded=0;orthogonalLoop=1;jettySize=auto;html=1;exitX=0;exitY=0;exitDx=130;exitDy=71;exitPerimeter=0;entryX=0;entryY=0;entryDx=130;entryDy=52;entryPerimeter=0;dashed=1;strokeWidth=2;verticalAlign=middle;endArrow=open;endFill=0;" edge="1" parent="qQucJu1-gVCWv_oJNmjI-19">
          <mxGeometry relative="1" as="geometry">
            <mxPoint x="484.0000000000002" y="413" as="sourcePoint" />
            <mxPoint x="842" y="144" as="targetPoint" />
            <Array as="points">
              <mxPoint x="484" y="402" />
              <mxPoint x="862" y="402" />
              <mxPoint x="862" y="144" />
            </Array>
          </mxGeometry>
        </mxCell>
        <mxCell id="qQucJu1-gVCWv_oJNmjI-73" style="edgeStyle=orthogonalEdgeStyle;rounded=0;orthogonalLoop=1;jettySize=auto;html=1;exitX=0.75;exitY=1;exitDx=0;exitDy=0;exitPerimeter=0;entryX=0;entryY=0;entryDx=0;entryDy=33;entryPerimeter=0;dashed=1;strokeWidth=2;verticalAlign=middle;endArrow=open;endFill=0;" edge="1" parent="qQucJu1-gVCWv_oJNmjI-19" source="qQucJu1-gVCWv_oJNmjI-37" target="qQucJu1-gVCWv_oJNmjI-27">
          <mxGeometry relative="1" as="geometry" />
        </mxCell>
        <mxCell id="qQucJu1-gVCWv_oJNmjI-68" style="edgeStyle=orthogonalEdgeStyle;rounded=0;orthogonalLoop=1;jettySize=auto;html=1;exitX=0;exitY=0;exitDx=85;exitDy=14;exitPerimeter=0;targetPerimeterSpacing=0;strokeWidth=2;dashed=1;verticalAlign=middle;endArrow=open;endFill=0;" edge="1" parent="qQucJu1-gVCWv_oJNmjI-82">
          <mxGeometry relative="1" as="geometry">
            <mxPoint x="332" y="187" as="targetPoint" />
            <mxPoint x="130" y="342" as="sourcePoint" />
            <Array as="points">
              <mxPoint x="130" y="259" />
              <mxPoint x="295" y="259" />
              <mxPoint x="295" y="187" />
            </Array>
          </mxGeometry>
        </mxCell>
        <mxCell id="qQucJu1-gVCWv_oJNmjI-23" value="controller" style="shape=folder;fontStyle=1;spacingTop=10;tabWidth=40;tabHeight=14;tabPosition=left;html=1;whiteSpace=wrap;strokeWidth=2;verticalAlign=middle;" vertex="1" parent="qQucJu1-gVCWv_oJNmjI-82">
          <mxGeometry x="32" y="328" width="130" height="90" as="geometry" />
        </mxCell>
        <mxCell id="qQucJu1-gVCWv_oJNmjI-55" value="" style="edgeStyle=orthogonalEdgeStyle;rounded=0;orthogonalLoop=1;jettySize=auto;html=1;endArrow=open;endFill=0;dashed=1;strokeWidth=2;verticalAlign=middle;" edge="1" parent="qQucJu1-gVCWv_oJNmjI-82">
          <mxGeometry relative="1" as="geometry">
            <mxPoint x="162" y="395" as="sourcePoint" />
            <mxPoint x="354.0000000000002" y="396" as="targetPoint" />
          </mxGeometry>
        </mxCell>
        <mxCell id="qQucJu1-gVCWv_oJNmjI-71" style="edgeStyle=orthogonalEdgeStyle;rounded=0;orthogonalLoop=1;jettySize=auto;html=1;exitX=0;exitY=0;exitDx=20;exitDy=0;exitPerimeter=0;entryX=0.11;entryY=1.027;entryDx=0;entryDy=0;entryPerimeter=0;dashed=1;strokeWidth=2;verticalAlign=middle;endArrow=open;endFill=0;" edge="1" parent="qQucJu1-gVCWv_oJNmjI-82" source="qQucJu1-gVCWv_oJNmjI-23" target="qQucJu1-gVCWv_oJNmjI-37">
          <mxGeometry relative="1" as="geometry" />
        </mxCell>
        <mxCell id="qQucJu1-gVCWv_oJNmjI-72" style="edgeStyle=orthogonalEdgeStyle;rounded=0;orthogonalLoop=1;jettySize=auto;html=1;exitX=0.75;exitY=1;exitDx=0;exitDy=0;exitPerimeter=0;entryX=0.75;entryY=1;entryDx=0;entryDy=0;entryPerimeter=0;dashed=1;strokeWidth=2;verticalAlign=middle;endArrow=open;endFill=0;" edge="1" parent="qQucJu1-gVCWv_oJNmjI-82" source="qQucJu1-gVCWv_oJNmjI-23" target="qQucJu1-gVCWv_oJNmjI-24">
          <mxGeometry relative="1" as="geometry">
            <Array as="points">
              <mxPoint x="132" y="418" />
              <mxPoint x="132" y="438" />
              <mxPoint x="810" y="438" />
            </Array>
          </mxGeometry>
        </mxCell>
        <mxCell id="qQucJu1-gVCWv_oJNmjI-84" value="在线商城项目包图" style="text;html=1;align=center;verticalAlign=middle;resizable=0;points=[];autosize=1;strokeColor=none;fillColor=none;fontSize=25;fontStyle=1" vertex="1" parent="1">
          <mxGeometry x="-1289" y="-99" width="218" height="42" as="geometry" />
        </mxCell>
      </root>
    </mxGraphModel>
  </diagram>
</mxfile>
